<svg width="356" height="150" viewBox="0 0 356 150" fill="none" xmlns="http://www.w3.org/2000/svg">
<path d="M76.24 30.2981L46.4534 60.0847L76.24 89.8713L106.027 60.0847L76.24 30.2981ZM49.3628 60.0847L76.24 33.2076L103.116 60.0847L76.24 86.9609L49.3628 60.0847Z" fill="#0D005E"/>
<path d="M76.24 43.4746L46.4534 73.2612L76.24 103.047L106.027 73.2612L76.24 43.4746ZM49.3628 73.2612L76.24 46.3841L103.116 73.2612L76.24 100.137L49.3628 73.2612Z" fill="#0D005E"/>
<path d="M76.24 55.917L46.4534 85.7036L76.24 115.489L106.027 85.7036L76.24 55.917ZM49.3628 85.7036L76.24 58.8265L103.116 85.7036L76.24 112.58L49.3628 85.7036Z" fill="#0D005E"/>
<path d="M121.146 24.5576V115.517" stroke="#0D005E" stroke-width="1.8786"/>
<path d="M171.628 59.4514V40.8284H183.724V44.1759H175.422V48.1467H182.419V51.5098H175.422V55.9784H183.724V59.4514H171.628Z" fill="#0D005E"/>
<path d="M197.588 59.4514L190.807 46.1436V59.4514H187.091V40.8284H192.014L198.329 53.3835V40.8284H202.056V59.4514H197.588Z" fill="#0D005E"/>
<path d="M204.452 59.4514L210.681 50.1105L204.613 40.8284H208.932L212.794 47.0961L216.792 40.8284H220.974L214.867 50.0321L220.951 59.4514H216.682L212.688 53.0307L208.635 59.4514H204.452Z" fill="#0D005E"/>
<path d="M238.7 51.6745C238.7 54.5889 238.108 56.683 236.924 57.9579C235.74 59.2309 233.778 59.8669 231.04 59.8669C228.333 59.8669 226.38 59.2377 225.18 57.9775C223.983 56.7183 223.385 54.6173 223.385 51.6745V40.8284H227.179V51.404C227.179 52.6691 227.299 53.6648 227.54 54.3909C227.783 55.118 228.169 55.6521 228.7 55.9941C229.23 56.3342 230.003 56.5037 231.017 56.5037C232.459 56.5037 233.468 56.1215 234.043 55.3552C234.617 54.5869 234.905 53.2885 234.905 51.4589V40.8284H238.7V51.6745Z" fill="#0D005E"/>
<path d="M250.717 44.2974V59.4514H246.923V44.2974H241.188V40.8284H256.448V44.2974H250.717Z" fill="#0D005E"/>
<path d="M257.285 59.4514L263.447 40.8284H268.386L274.564 59.4514H270.675L269.437 55.6688H262.263L261.052 59.4514H257.285ZM263.341 52.3448H268.359L265.858 44.6502L263.341 52.3448Z" fill="#0D005E"/>
<path d="M148.148 90.9245C147.349 92.1161 146.367 92.9932 145.205 93.5547C144.044 94.1162 142.616 94.3975 140.92 94.3975C135.152 94.3975 132.269 91.1626 132.269 84.692C132.269 81.3817 132.999 78.9367 134.46 77.358C135.924 75.7803 138.032 74.9905 140.787 74.9905C142.608 74.9905 144.092 75.2982 145.24 75.9116C146.389 76.5261 147.265 77.3306 147.866 78.3262L144.919 80.6154C144.487 79.9706 144.091 79.5041 143.731 79.216C143.372 78.9289 142.964 78.7133 142.508 78.5693C142.05 78.4262 141.502 78.3537 140.865 78.3537C139.342 78.3537 138.18 78.8417 137.381 79.8158C136.583 80.7879 136.185 82.4136 136.185 84.692C136.185 86.8195 136.559 88.408 137.306 89.4585C138.056 90.507 139.251 91.0303 140.893 91.0303C141.995 91.0303 142.854 90.8206 143.468 90.3992C144.085 89.9788 144.644 89.4183 145.146 88.7176L148.148 90.9245Z" fill="#0D005E"/>
<path d="M166.115 84.692C166.115 87.9327 165.43 90.36 164.061 91.975C162.691 93.59 160.701 94.3975 158.091 94.3975C155.336 94.3975 153.311 93.5469 152.015 91.8457C150.719 90.1445 150.071 87.7602 150.071 84.692C150.071 81.6061 150.719 79.218 152.015 77.5266C153.311 75.8362 155.336 74.9905 158.091 74.9905C160.863 74.9905 162.893 75.8362 164.182 77.5266C165.47 79.218 166.115 81.6061 166.115 84.692ZM162.195 84.692C162.195 82.4871 161.882 80.88 161.258 79.8706C160.636 78.8593 159.58 78.3537 158.091 78.3537C156.601 78.3537 155.544 78.8593 154.92 79.8706C154.297 80.88 153.987 82.4871 153.987 84.692C153.987 86.9008 154.302 88.5089 154.935 89.5173C155.567 90.5266 156.619 91.0303 158.091 91.0303C159.58 91.0303 160.636 90.5266 161.258 89.5173C161.882 88.5089 162.195 86.9008 162.195 84.692Z" fill="#0D005E"/>
<path d="M179.786 94.0056L173.005 80.6978V94.0056H169.289V75.3826H174.212L180.527 87.9377V75.3826H184.255V94.0056H179.786Z" fill="#0D005E"/>
<path d="M201.667 88.6079C201.667 90.4737 201.054 91.9064 199.829 92.904C198.606 93.8996 196.8 94.3975 194.412 94.3975C192.762 94.3975 191.329 94.124 190.112 93.5782C188.896 93.0294 187.909 92.1455 187.148 90.9245L190.068 88.6902C190.497 89.2997 190.904 89.7564 191.291 90.0621C191.678 90.3679 192.135 90.606 192.663 90.7755C193.194 90.9461 193.804 91.0303 194.494 91.0303C195.526 91.0303 196.33 90.8539 196.909 90.5012C197.489 90.1464 197.779 89.6055 197.779 88.8784C197.779 88.4658 197.677 88.1209 197.473 87.8435C197.271 87.5642 196.968 87.3242 196.564 87.1223C196.161 86.9214 195.462 86.6901 194.466 86.4285C193.496 86.1698 192.583 85.9091 191.727 85.6445C190.872 85.378 190.132 85.035 189.508 84.6136C188.883 84.1903 188.392 83.6611 188.034 83.0261C187.675 82.3891 187.497 81.5856 187.497 80.6154C187.497 78.8495 188.093 77.4707 189.284 76.48C190.478 75.4873 192.187 74.9905 194.412 74.9905C197.634 74.9905 199.912 76.0949 201.248 78.3027L198.355 80.5605C197.845 79.7717 197.271 79.2072 196.634 78.8672C195.996 78.5252 195.239 78.3537 194.361 78.3537C193.48 78.3537 192.763 78.5134 192.213 78.8319C191.661 79.1514 191.386 79.6511 191.386 80.3332C191.386 80.9349 191.672 81.3945 192.244 81.713C192.818 82.0324 193.82 82.3519 195.247 82.6733C196.035 82.8801 196.815 83.1025 197.587 83.3397C198.36 83.5778 199.049 83.908 199.652 84.3314C200.258 84.7528 200.746 85.3035 201.114 85.9855C201.483 86.6676 201.667 87.5417 201.667 88.6079Z" fill="#0D005E"/>
<path d="M220.131 86.2287C220.131 89.1431 219.539 91.2372 218.355 92.5121C217.171 93.7851 215.21 94.4211 212.472 94.4211C209.764 94.4211 207.811 93.7919 206.611 92.5317C205.414 91.2725 204.816 89.1715 204.816 86.2287V75.3826H208.611V85.9582C208.611 87.2233 208.73 88.219 208.971 88.9451C209.214 89.6722 209.6 90.2063 210.131 90.5483C210.662 90.8883 211.434 91.0579 212.448 91.0579C213.891 91.0579 214.899 90.6757 215.474 89.9094C216.048 89.1411 216.336 87.8427 216.336 86.0131V75.3826H220.131V86.2287Z" fill="#0D005E"/>
<path d="M224.168 94.0056V75.3826H227.962V90.5326H235.794V94.0056H224.168Z" fill="#0D005E"/>
<path d="M246.117 78.8516V94.0056H242.323V78.8516H236.588V75.3826H251.848V78.8516H246.117Z" fill="#0D005E"/>
<path d="M269.521 84.692C269.521 87.9327 268.836 90.36 267.467 91.975C266.097 93.59 264.107 94.3975 261.497 94.3975C258.742 94.3975 256.717 93.5469 255.421 91.8457C254.125 90.1445 253.477 87.7602 253.477 84.692C253.477 81.6061 254.125 79.218 255.421 77.5266C256.717 75.8362 258.742 74.9905 261.497 74.9905C264.269 74.9905 266.299 75.8362 267.588 77.5266C268.876 79.218 269.521 81.6061 269.521 84.692ZM265.601 84.692C265.601 82.4871 265.288 80.88 264.664 79.8706C264.042 78.8593 262.986 78.3537 261.497 78.3537C260.007 78.3537 258.95 78.8593 258.326 79.8706C257.703 80.88 257.393 82.4871 257.393 84.692C257.393 86.9008 257.708 88.5089 258.341 89.5173C258.973 90.5266 260.025 91.0303 261.497 91.0303C262.986 91.0303 264.042 90.5266 264.664 89.5173C265.288 88.5089 265.601 86.9008 265.601 84.692Z" fill="#0D005E"/>
<path d="M283.165 94.0056L278.414 86.9538H276.489V94.0056H272.695V75.3826H279.465C281.858 75.3826 283.609 75.8137 284.717 76.6761C285.824 77.5365 286.379 78.9486 286.379 80.9134C286.379 82.5 286.044 83.7651 285.376 84.7078C284.709 85.6485 283.762 86.2502 282.534 86.5109L287.512 94.0056H283.165ZM282.534 81.0741C282.534 80.1236 282.293 79.4866 281.813 79.1652C281.331 78.8418 280.54 78.6791 279.437 78.6791H276.489V83.6455H279.276C280.128 83.6455 280.783 83.5652 281.24 83.4025C281.697 83.2408 282.026 82.9899 282.228 82.6499C282.432 82.3079 282.534 81.7826 282.534 81.0741Z" fill="#0D005E"/>
<path d="M298.316 94.0056H289.327V91.0853H291.926V78.3028H289.327V75.3826H298.316V78.3028H295.732V91.0853H298.316V94.0056Z" fill="#0D005E"/>
<path d="M300.055 94.0056L306.217 75.3826H311.156L317.333 94.0056H313.445L312.206 90.223H305.033L303.822 94.0056H300.055ZM306.111 86.899H311.128L308.628 79.2044L306.111 86.899Z" fill="#0D005E"/>
<path d="M183.976 114.201V104.214H190.083V105.417H185.313V108.333H189.389V109.545H185.313V112.99H190.083V114.201H183.976Z" fill="#0D005E"/>
<path d="M200.929 114.202V109.741C200.929 108.991 200.9 108.496 200.843 108.255C200.785 108.015 200.684 107.847 200.541 107.753C200.397 107.659 200.178 107.612 199.883 107.612C199.634 107.612 199.354 107.701 199.04 107.879C198.726 108.057 198.317 108.383 197.813 108.855V114.202H196.57V109.741C196.57 109.03 196.541 108.549 196.484 108.298C196.426 108.047 196.327 107.871 196.186 107.769C196.047 107.665 195.832 107.612 195.54 107.612C195.27 107.612 194.956 107.72 194.595 107.934C194.234 108.148 193.854 108.455 193.454 108.855V114.202H192.212V106.628H193.454V107.757C193.781 107.4 194.145 107.086 194.548 106.817C194.953 106.548 195.387 106.413 195.849 106.413C196.359 106.413 196.766 106.532 197.072 106.77C197.378 107.005 197.582 107.38 197.684 107.895C198.078 107.477 198.479 107.125 198.887 106.84C199.297 106.556 199.751 106.413 200.251 106.413C200.714 106.413 201.084 106.511 201.364 106.707C201.644 106.901 201.848 107.181 201.976 107.55C202.106 107.918 202.172 108.451 202.172 109.149V114.202H200.929Z" fill="#0D005E"/>
<path d="M210.969 110.36C210.969 111.602 210.699 112.589 210.158 113.323C209.617 114.058 208.872 114.425 207.923 114.425C207.168 114.425 206.463 114.145 205.811 113.582V117.051H204.568V106.628H205.811V107.389C206.093 107.114 206.434 106.883 206.834 106.695C207.234 106.507 207.662 106.413 208.119 106.413C209.018 106.413 209.717 106.754 210.217 107.436C210.718 108.116 210.969 109.09 210.969 110.36ZM209.687 110.391C209.687 108.477 209.085 107.518 207.88 107.518C207.485 107.518 207.108 107.618 206.748 107.816C206.387 108.012 206.074 108.238 205.811 108.494V112.496C206.454 113.043 207.102 113.316 207.759 113.316C208.32 113.316 208.782 113.08 209.143 112.61C209.505 112.138 209.687 111.398 209.687 110.391Z" fill="#0D005E"/>
<path d="M217.134 107.855C216.998 107.798 216.806 107.769 216.558 107.769C216.186 107.769 215.828 107.855 215.484 108.028C215.141 108.198 214.741 108.512 214.284 108.968V114.201H213.042V106.628H214.284V107.855C214.629 107.505 214.992 107.195 215.374 106.922C215.758 106.651 216.183 106.515 216.652 106.515C216.962 106.515 217.212 106.566 217.4 106.668L217.134 107.855Z" fill="#0D005E"/>
<path d="M219.797 110.564C219.797 111.565 219.967 112.279 220.31 112.704C220.652 113.13 221.201 113.343 221.956 113.343C222.294 113.343 222.589 113.273 222.842 113.131C223.098 112.988 223.344 112.758 223.579 112.442L224.602 113.077C224.314 113.508 223.963 113.841 223.548 114.076C223.134 114.308 222.576 114.425 221.87 114.425C220.743 114.425 219.903 114.099 219.346 113.445C218.789 112.789 218.511 111.801 218.511 110.478C218.511 109.093 218.781 108.07 219.322 107.408C219.865 106.745 220.684 106.413 221.776 106.413C222.756 106.413 223.491 106.697 223.983 107.263C224.474 107.828 224.72 108.697 224.72 109.87V110.564H219.797ZM223.509 109.588C223.498 108.912 223.354 108.386 223.078 108.012C222.8 107.636 222.352 107.448 221.733 107.448C221.139 107.448 220.695 107.618 220.4 107.957C220.104 108.294 219.908 108.838 219.812 109.588H223.509Z" fill="#0D005E"/>
<path d="M231.871 112.159C231.871 112.868 231.621 113.423 231.119 113.825C230.619 114.225 229.909 114.425 228.986 114.425C228.356 114.425 227.791 114.305 227.289 114.068C226.789 113.831 226.424 113.495 226.192 113.061L227.187 112.453C227.568 113.065 228.18 113.371 229.022 113.371C229.571 113.371 229.98 113.267 230.253 113.057C230.524 112.848 230.66 112.566 230.66 112.21C230.66 111.999 230.611 111.828 230.515 111.697C230.418 111.563 230.269 111.448 230.068 111.348C229.866 111.249 229.453 111.116 228.826 110.948C227.926 110.739 227.293 110.453 226.925 110.09C226.556 109.724 226.372 109.238 226.372 108.631C226.372 107.963 226.612 107.426 227.093 107.02C227.573 106.616 228.24 106.413 229.092 106.413C229.753 106.413 230.307 106.544 230.754 106.805C231.201 107.064 231.527 107.376 231.734 107.742L230.746 108.349C230.352 107.756 229.791 107.459 229.065 107.459C228.651 107.459 228.301 107.552 228.014 107.734C227.729 107.917 227.587 108.2 227.587 108.584C227.587 108.927 227.711 109.175 227.959 109.329C228.21 109.484 228.602 109.626 229.135 109.756C229.992 109.976 230.584 110.183 230.911 110.376C231.24 110.57 231.481 110.807 231.636 111.089C231.793 111.369 231.871 111.726 231.871 112.159Z" fill="#0D005E"/>
<path d="M238.15 114.202V113.257C237.766 113.594 237.379 113.874 236.99 114.096C236.6 114.315 236.16 114.425 235.669 114.425C234.947 114.425 234.391 114.205 233.999 113.766C233.607 113.325 233.411 112.761 233.411 112.073C233.411 111.554 233.513 111.122 233.717 110.78C233.92 110.435 234.215 110.163 234.603 109.964C234.992 109.763 235.553 109.619 236.288 109.533L238.15 109.364V108.996C238.15 108.416 237.987 108.02 237.664 107.808C237.34 107.597 236.892 107.491 236.319 107.491C235.81 107.491 235.416 107.58 235.14 107.757C234.862 107.936 234.663 108.128 234.544 108.334L233.525 107.714C233.757 107.294 234.11 106.972 234.583 106.75C235.055 106.526 235.643 106.413 236.347 106.413C237.434 106.413 238.213 106.611 238.683 107.005C239.155 107.4 239.393 108.083 239.393 109.055V114.202H238.15ZM238.15 110.36L236.939 110.478C236.116 110.551 235.535 110.712 235.198 110.96C234.861 111.206 234.693 111.566 234.693 112.042C234.693 112.496 234.806 112.824 235.034 113.022C235.261 113.218 235.6 113.316 236.053 113.316C236.238 113.316 236.422 113.28 236.606 113.21C236.788 113.139 236.968 113.053 237.146 112.951C237.327 112.847 237.499 112.73 237.664 112.598C237.83 112.465 237.993 112.336 238.15 112.21V110.36Z" fill="#0D005E"/>
<path d="M245.882 107.855C245.745 107.798 245.553 107.769 245.305 107.769C244.934 107.769 244.576 107.855 244.231 108.028C243.888 108.198 243.489 108.512 243.032 108.968V114.201H241.789V106.628H243.032V107.855C243.377 107.505 243.739 107.195 244.122 106.922C244.506 106.651 244.931 106.515 245.399 106.515C245.71 106.515 245.96 106.566 246.148 106.668L245.882 107.855Z" fill="#0D005E"/>
<path d="M249.077 104.712C249.077 105 249.012 105.196 248.881 105.3C248.753 105.401 248.546 105.452 248.262 105.452C247.958 105.452 247.75 105.389 247.635 105.26C247.519 105.13 247.462 104.947 247.462 104.712C247.462 104.456 247.525 104.269 247.651 104.151C247.776 104.033 247.98 103.975 248.262 103.975C248.557 103.975 248.766 104.031 248.889 104.143C249.015 104.256 249.077 104.445 249.077 104.712ZM247.643 114.201V106.628H248.885V114.201H247.643Z" fill="#0D005E"/>
<path d="M255.638 114.202V113.257C255.254 113.594 254.867 113.874 254.478 114.096C254.088 114.315 253.648 114.425 253.157 114.425C252.436 114.425 251.879 114.205 251.487 113.766C251.095 113.325 250.899 112.761 250.899 112.073C250.899 111.554 251.001 111.122 251.205 110.78C251.409 110.435 251.704 110.163 252.091 109.964C252.48 109.763 253.041 109.619 253.776 109.533L255.638 109.364V108.996C255.638 108.416 255.476 108.02 255.152 107.808C254.828 107.597 254.38 107.491 253.808 107.491C253.298 107.491 252.904 107.58 252.628 107.757C252.35 107.936 252.152 108.128 252.032 108.334L251.013 107.714C251.245 107.294 251.598 106.972 252.071 106.75C252.544 106.526 253.132 106.413 253.835 106.413C254.922 106.413 255.701 106.611 256.171 107.005C256.644 107.4 256.881 108.083 256.881 109.055V114.202H255.638ZM255.638 110.36L254.427 110.478C253.604 110.551 253.024 110.712 252.687 110.96C252.349 111.206 252.181 111.566 252.181 112.042C252.181 112.496 252.295 112.824 252.522 113.022C252.749 113.218 253.088 113.316 253.541 113.316C253.726 113.316 253.911 113.28 254.094 113.21C254.276 113.139 254.456 113.053 254.635 112.951C254.815 112.847 254.988 112.73 255.152 112.598C255.319 112.465 255.481 112.336 255.638 112.21V110.36Z" fill="#0D005E"/>
<path d="M259.336 114.201V103.453H260.575V114.201H259.336Z" fill="#0D005E"/>
</svg>
